<svg width="54" height="54" viewBox="0 0 54 54" fill="none" xmlns="http://www.w3.org/2000/svg">
<path fill-rule="evenodd" clip-rule="evenodd" d="M2.25 27C2.25 13.331 13.331 2.25 27 2.25C40.669 2.25 51.75 13.331 51.75 27C51.75 40.669 40.669 51.75 27 51.75C13.331 51.75 2.25 40.669 2.25 27ZM38.8807 20.8807C39.5397 20.2217 39.5397 19.1533 38.8807 18.4943C38.2216 17.8353 37.1534 17.8353 36.4943 18.4943L23.0625 31.9259L17.5057 26.3693C16.8467 25.7103 15.7783 25.7103 15.1193 26.3693C14.4603 27.0283 14.4603 28.0967 15.1193 28.7557L21.8693 35.5057C22.5284 36.1647 23.5967 36.1647 24.2557 35.5057L38.8807 20.8807Z" fill="#65CD7F"/>
</svg>
