<svg width="54" height="54" viewBox="0 0 54 54" fill="none" xmlns="http://www.w3.org/2000/svg">
<g clip-path="url(#clip0_241_27)">
<path fill-rule="evenodd" clip-rule="evenodd" d="M22.4763 0.378018C25.4708 -0.127603 28.5292 -0.127603 31.5237 0.378018C32.0031 0.461575 32.43 0.731534 32.7108 1.12887C32.9918 1.52621 33.104 2.0186 33.0227 2.49841C32.9417 2.9782 32.6739 3.40637 32.278 3.6893C31.8821 3.97224 31.3902 4.08694 30.9101 4.0083C28.3218 3.57124 25.6782 3.57124 23.0899 4.0083C22.6082 4.08967 22.1139 3.97634 21.7157 3.69323C21.3175 3.41015 21.0481 2.98048 20.9667 2.49875C20.8854 2.01701 20.9987 1.52269 21.2818 1.12452C21.5649 0.726342 21.9946 0.456936 22.4763 0.375563V0.378018ZM13.9418 5.4123C14.0819 5.60937 14.1818 5.83215 14.2358 6.06786C14.2898 6.30357 14.2968 6.5476 14.2565 6.78601C14.2161 7.02444 14.1292 7.25259 14.0007 7.4574C13.8721 7.66223 13.7045 7.83972 13.5074 7.97975C11.3678 9.49998 9.49846 11.3685 7.97728 13.5074C7.6941 13.9055 7.26438 14.1747 6.78265 14.256C6.30095 14.3372 5.80668 14.2238 5.4086 13.9406C5.01052 13.6574 4.74123 13.2277 4.65999 12.746C4.57874 12.2643 4.69219 11.77 4.97537 11.3719C6.73494 8.89783 8.89715 6.73645 11.3719 4.97784C11.569 4.83774 11.7918 4.73784 12.0275 4.68384C12.2632 4.62986 12.5072 4.62284 12.7457 4.66317C12.9841 4.70352 13.2122 4.79044 13.417 4.91898C13.6219 5.0475 13.8018 5.21515 13.9418 5.4123ZM40.0582 5.4123C40.1981 5.21515 40.3758 5.0475 40.5805 4.91898C40.7855 4.79044 41.0135 4.70352 41.2518 4.66317C41.4904 4.62284 41.7344 4.62986 41.97 4.68384C42.2057 4.73784 42.4285 4.83774 42.6256 4.97784C45.0998 6.73741 47.2611 8.89959 49.0197 11.3744C49.1675 11.5709 49.2743 11.795 49.3339 12.0335C49.3936 12.272 49.4049 12.52 49.3671 12.7629C49.3295 13.0058 49.2433 13.2387 49.1142 13.4478C48.9851 13.657 48.8153 13.8381 48.615 13.9806C48.4147 14.123 48.1876 14.2239 47.9478 14.2773C47.7078 14.3307 47.4596 14.3355 47.2179 14.2914C46.9758 14.2473 46.7454 14.1552 46.5397 14.0205C46.334 13.8859 46.1575 13.7114 46.0203 13.5074C44.4999 11.3687 42.6313 9.5002 40.4926 7.97975C40.2955 7.83972 40.1279 7.66223 39.9993 7.4574C39.8709 7.25259 39.7838 7.02444 39.7435 6.78601C39.7033 6.5476 39.7101 6.30357 39.7641 6.06786C39.8181 5.83215 39.918 5.60937 40.0582 5.4123ZM2.49874 20.9692C2.98012 21.0503 3.40957 21.3193 3.69265 21.717C3.97573 22.1147 4.08926 22.6085 4.00828 23.0899C3.57122 25.6782 3.57122 28.3218 4.00828 30.9101C4.08965 31.3919 3.97632 31.8863 3.69324 32.2844C3.41013 32.6825 2.98046 32.952 2.49874 33.0333C2.017 33.1148 1.52268 33.0014 1.12451 32.7184C0.726333 32.4351 0.456927 32.0056 0.375554 31.5237C-0.130067 28.5292 -0.130067 25.4708 0.375554 22.4763C0.415982 22.2379 0.502976 22.0098 0.631563 21.8051C0.760149 21.6003 0.927812 21.4229 1.12497 21.2829C1.32213 21.143 1.54493 21.0433 1.78064 20.9894C2.01636 20.9356 2.26036 20.9287 2.49874 20.9692ZM51.5013 20.9692C51.9824 20.8882 52.4757 21.0014 52.8734 21.284C53.271 21.5665 53.5403 21.9954 53.622 22.4763C54.1279 25.4708 54.1279 28.5292 53.622 31.5237C53.5386 32.0031 53.2686 32.4299 52.8712 32.7107C52.4738 32.9918 51.9814 33.104 51.5015 33.0227C51.0219 32.9417 50.5936 32.6739 50.3108 32.278C50.0278 31.8821 49.9132 31.3902 49.9917 30.9101C50.4291 28.3218 50.4291 25.6782 49.9917 23.0899C49.9107 22.6085 50.0244 22.1147 50.3074 21.717C50.5904 21.3193 51.0199 21.0503 51.5013 20.9692ZM5.41228 40.0582C5.60938 39.918 5.83213 39.8181 6.06784 39.7641C6.30355 39.7101 6.54758 39.7033 6.78602 39.7435C7.02443 39.7838 7.25258 39.8709 7.45741 39.9993C7.66222 40.1279 7.8397 40.2955 7.97974 40.4926C9.50018 42.6313 11.3687 44.4999 13.5074 46.0203C13.7045 46.1604 13.872 46.3381 14.0005 46.5431C14.1289 46.748 14.2158 46.9763 14.256 47.2149C14.2962 47.4535 14.2891 47.6975 14.2349 47.9333C14.1808 48.169 14.0808 48.3919 13.9406 48.589C13.8004 48.7861 13.6227 48.9537 13.4177 49.0821C13.2128 49.2104 12.9845 49.2973 12.746 49.3376C12.5075 49.3778 12.2633 49.3707 12.0276 49.3165C11.7918 49.2625 11.569 49.1623 11.3719 49.0222C8.89781 47.2625 6.73646 45.1003 4.97783 42.6256C4.83772 42.4285 4.73782 42.2059 4.68385 41.97C4.62985 41.7344 4.62283 41.4904 4.66318 41.2518C4.70351 41.0135 4.79045 40.7855 4.91897 40.5805C5.04751 40.3758 5.21513 40.1983 5.41228 40.0582ZM48.5877 40.0582C48.7846 40.1983 48.952 40.376 49.0804 40.581C49.2087 40.786 49.2954 41.014 49.3354 41.2526C49.3756 41.4909 49.3683 41.7349 49.3143 41.9705C49.26 42.2062 49.1599 42.4288 49.0197 42.6256C47.2611 45.0996 45.0996 47.261 42.6256 49.0197C42.429 49.1675 42.2049 49.2743 41.9666 49.3339C41.728 49.3936 41.4801 49.4048 41.2371 49.367C40.9944 49.3295 40.7614 49.2433 40.5523 49.1142C40.3432 48.9851 40.162 48.8153 40.0194 48.615C39.877 48.4147 39.7762 48.1876 39.7227 47.9478C39.6694 47.7078 39.6645 47.4596 39.7087 47.2178C39.7528 46.9758 39.8449 46.7453 39.9794 46.5397C40.1142 46.334 40.2887 46.1575 40.4926 46.0203C42.6313 44.4999 44.4999 42.6313 46.0203 40.4926C46.1602 40.2955 46.3379 40.1279 46.5426 39.9993C46.7476 39.8709 46.9756 39.7838 47.2139 39.7435C47.4525 39.7033 47.6965 39.7101 47.9321 39.7641C48.1678 39.8181 48.3906 39.918 48.5877 40.0582ZM20.9692 51.5013C21.0503 51.0199 21.3193 50.5904 21.717 50.3074C22.1147 50.0244 22.6085 49.9107 23.0899 49.9917C25.6782 50.4291 28.3218 50.4291 30.9101 49.9917C31.3919 49.9105 31.8863 50.0236 32.2844 50.3069C32.6825 50.5899 32.9518 51.0194 33.0333 51.5013C33.1148 51.9831 33.0014 52.4774 32.7181 52.8756C32.4351 53.2737 32.0056 53.5432 31.5237 53.6245C28.5292 54.1303 25.4708 54.1303 22.4763 53.6245C22.2379 53.584 22.0098 53.4971 21.8051 53.3685C21.6003 53.2398 21.4229 53.0722 21.283 52.8751C21.143 52.678 21.0433 52.4551 20.9894 52.2195C20.9356 51.9836 20.9287 51.7396 20.9692 51.5013Z" fill="#F3C96B"/>
</g>
<defs>
<clipPath id="clip0_241_27">
<rect width="54" height="54" fill="white"/>
</clipPath>
</defs>
</svg>
