<svg width="24" height="24" viewBox="0 0 24 24" fill="none" xmlns="http://www.w3.org/2000/svg">
<path fill-rule="evenodd" clip-rule="evenodd" d="M12 2.5C6.75329 2.5 2.5 6.75329 2.5 12C2.5 17.2467 6.75329 21.5 12 21.5C17.2467 21.5 21.5 17.2467 21.5 12C21.5 6.75329 17.2467 2.5 12 2.5ZM1 12C1 5.92487 5.92487 1 12 1C18.0751 1 23 5.92487 23 12C23 18.0751 18.0751 23 12 23C5.92487 23 1 18.0751 1 12Z" fill="#1F2328"/>
<path fill-rule="evenodd" clip-rule="evenodd" d="M12 4.08337C9.46876 4.08337 7.41677 6.13541 7.41677 8.66671C7.41677 10.2413 8.21074 11.6304 9.42016 12.4555C6.61636 13.4826 4.59671 16.1358 4.50333 19.2731C4.49307 19.6181 4.76444 19.9062 5.10946 19.9164C5.45449 19.9267 5.74251 19.6553 5.75278 19.3103C5.8529 15.9465 8.61165 13.25 12 13.25C15.3883 13.25 18.147 15.9465 18.2471 19.3103C18.2574 19.6553 18.5454 19.9267 18.8905 19.9164C19.2355 19.9062 19.5069 19.6181 19.4966 19.2731C19.4032 16.1359 17.3836 13.4826 14.5799 12.4555C15.7893 11.6304 16.5833 10.2413 16.5833 8.66671C16.5833 6.13541 14.5313 4.08337 12 4.08337ZM8.66677 8.66671C8.66677 6.82575 10.1591 5.33337 12 5.33337C13.8409 5.33337 15.3333 6.82575 15.3333 8.66671C15.3333 10.5077 13.8409 12 12 12C10.1591 12 8.66677 10.5077 8.66677 8.66671Z" fill="#1F2328"/>
</svg>
